G04 #@! TF.GenerationSoftware,KiCad,Pcbnew,9.0.2*
G04 #@! TF.CreationDate,2025-08-31T04:01:00-05:00*
G04 #@! TF.ProjectId,Dancebot_PCB,44616e63-6562-46f7-945f-5043422e6b69,rev?*
G04 #@! TF.SameCoordinates,Original*
G04 #@! TF.FileFunction,Soldermask,Top*
G04 #@! TF.FilePolarity,Negative*
%FSLAX46Y46*%
G04 Gerber Fmt 4.6, Leading zero omitted, Abs format (unit mm)*
G04 Created by KiCad (PCBNEW 9.0.2) date 2025-08-31 04:01:00*
%MOMM*%
%LPD*%
G01*
G04 APERTURE LIST*
G04 Aperture macros list*
%AMRoundRect*
0 Rectangle with rounded corners*
0 $1 Rounding radius*
0 $2 $3 $4 $5 $6 $7 $8 $9 X,Y pos of 4 corners*
0 Add a 4 corners polygon primitive as box body*
4,1,4,$2,$3,$4,$5,$6,$7,$8,$9,$2,$3,0*
0 Add four circle primitives for the rounded corners*
1,1,$1+$1,$2,$3*
1,1,$1+$1,$4,$5*
1,1,$1+$1,$6,$7*
1,1,$1+$1,$8,$9*
0 Add four rect primitives between the rounded corners*
20,1,$1+$1,$2,$3,$4,$5,0*
20,1,$1+$1,$4,$5,$6,$7,0*
20,1,$1+$1,$6,$7,$8,$9,0*
20,1,$1+$1,$8,$9,$2,$3,0*%
%AMFreePoly0*
4,1,23,0.500000,-0.750000,0.000000,-0.750000,0.000000,-0.745722,-0.065263,-0.745722,-0.191342,-0.711940,-0.304381,-0.646677,-0.396677,-0.554381,-0.461940,-0.441342,-0.495722,-0.315263,-0.495722,-0.250000,-0.500000,-0.250000,-0.500000,0.250000,-0.495722,0.250000,-0.495722,0.315263,-0.461940,0.441342,-0.396677,0.554381,-0.304381,0.646677,-0.191342,0.711940,-0.065263,0.745722,0.000000,0.745722,
0.000000,0.750000,0.500000,0.750000,0.500000,-0.750000,0.500000,-0.750000,$1*%
%AMFreePoly1*
4,1,23,0.000000,0.745722,0.065263,0.745722,0.191342,0.711940,0.304381,0.646677,0.396677,0.554381,0.461940,0.441342,0.495722,0.315263,0.495722,0.250000,0.500000,0.250000,0.500000,-0.250000,0.495722,-0.250000,0.495722,-0.315263,0.461940,-0.441342,0.396677,-0.554381,0.304381,-0.646677,0.191342,-0.711940,0.065263,-0.745722,0.000000,-0.745722,0.000000,-0.750000,-0.500000,-0.750000,
-0.500000,0.750000,0.000000,0.750000,0.000000,0.745722,0.000000,0.745722,$1*%
G04 Aperture macros list end*
%ADD10C,1.700000*%
%ADD11R,1.700000X1.700000*%
%ADD12R,1.000000X1.000000*%
%ADD13C,2.000000*%
%ADD14R,0.900000X0.900000*%
%ADD15R,1.500000X0.900000*%
%ADD16R,0.900000X1.500000*%
%ADD17RoundRect,0.250000X0.300000X0.375000X-0.300000X0.375000X-0.300000X-0.375000X0.300000X-0.375000X0*%
%ADD18RoundRect,0.237500X0.462500X-0.237500X0.462500X0.237500X-0.462500X0.237500X-0.462500X-0.237500X0*%
%ADD19RoundRect,0.237500X-0.462500X0.237500X-0.462500X-0.237500X0.462500X-0.237500X0.462500X0.237500X0*%
%ADD20RoundRect,0.240000X-0.240000X-0.455000X0.240000X-0.455000X0.240000X0.455000X-0.240000X0.455000X0*%
%ADD21RoundRect,0.250000X0.485000X-0.260000X0.485000X0.260000X-0.485000X0.260000X-0.485000X-0.260000X0*%
%ADD22RoundRect,0.237500X0.237500X0.462500X-0.237500X0.462500X-0.237500X-0.462500X0.237500X-0.462500X0*%
%ADD23RoundRect,0.240000X0.240000X0.455000X-0.240000X0.455000X-0.240000X-0.455000X0.240000X-0.455000X0*%
%ADD24R,1.300000X0.600000*%
%ADD25RoundRect,0.250000X-0.260000X-0.485000X0.260000X-0.485000X0.260000X0.485000X-0.260000X0.485000X0*%
%ADD26R,1.350000X1.350000*%
%ADD27C,1.350000*%
%ADD28C,5.700000*%
%ADD29R,0.700000X0.300000*%
%ADD30R,1.000000X1.700000*%
%ADD31RoundRect,0.237500X-0.237500X-0.462500X0.237500X-0.462500X0.237500X0.462500X-0.237500X0.462500X0*%
%ADD32FreePoly0,90.000000*%
%ADD33FreePoly1,90.000000*%
%ADD34R,0.600000X1.200000*%
%ADD35RoundRect,0.237500X-0.237500X-0.487500X0.237500X-0.487500X0.237500X0.487500X-0.237500X0.487500X0*%
%ADD36RoundRect,0.240000X0.455000X-0.240000X0.455000X0.240000X-0.455000X0.240000X-0.455000X-0.240000X0*%
%ADD37RoundRect,0.150000X-0.150000X0.587500X-0.150000X-0.587500X0.150000X-0.587500X0.150000X0.587500X0*%
%ADD38RoundRect,0.250000X0.260000X0.485000X-0.260000X0.485000X-0.260000X-0.485000X0.260000X-0.485000X0*%
%ADD39RoundRect,0.237500X0.237500X0.487500X-0.237500X0.487500X-0.237500X-0.487500X0.237500X-0.487500X0*%
%ADD40RoundRect,0.250000X-0.485000X0.260000X-0.485000X-0.260000X0.485000X-0.260000X0.485000X0.260000X0*%
%ADD41RoundRect,0.135000X-0.335000X0.135000X-0.335000X-0.135000X0.335000X-0.135000X0.335000X0.135000X0*%
%ADD42RoundRect,0.135000X0.335000X-0.135000X0.335000X0.135000X-0.335000X0.135000X-0.335000X-0.135000X0*%
%ADD43R,1.220000X1.150000*%
%ADD44R,0.600000X0.240000*%
%ADD45R,1.650000X2.400000*%
%ADD46R,0.250000X0.500000*%
%ADD47R,2.700000X0.800000*%
%ADD48R,0.450000X0.950000*%
%ADD49RoundRect,0.237500X-0.487500X0.237500X-0.487500X-0.237500X0.487500X-0.237500X0.487500X0.237500X0*%
%ADD50O,0.900000X1.600000*%
%ADD51RoundRect,0.250000X0.550000X0.450000X-0.550000X0.450000X-0.550000X-0.450000X0.550000X-0.450000X0*%
%ADD52RoundRect,0.250000X0.700000X0.700000X-0.700000X0.700000X-0.700000X-0.700000X0.700000X-0.700000X0*%
%ADD53RoundRect,0.100000X0.100000X0.575000X-0.100000X0.575000X-0.100000X-0.575000X0.100000X-0.575000X0*%
G04 APERTURE END LIST*
G36*
X115250000Y-68650000D02*
G01*
X116750000Y-68650000D01*
X116750000Y-68350000D01*
X115250000Y-68350000D01*
X115250000Y-68650000D01*
G37*
D10*
X158000000Y-96580000D03*
X158000000Y-94040000D03*
D11*
X158000000Y-91500000D03*
D10*
X153500000Y-96580000D03*
X153500000Y-94040000D03*
D11*
X153500000Y-91500000D03*
D10*
X167000000Y-96580000D03*
X167000000Y-94040000D03*
D11*
X167000000Y-91500000D03*
D10*
X171500000Y-96580000D03*
X171500000Y-94040000D03*
D11*
X171500000Y-91500000D03*
D12*
X137210000Y-98060000D03*
D13*
X136000000Y-78500000D03*
X136000000Y-72000000D03*
X140500000Y-78500000D03*
X140500000Y-72000000D03*
D14*
X156800000Y-76240000D03*
X155400000Y-76240000D03*
X154000000Y-76240000D03*
X154000000Y-74840000D03*
X154000000Y-73440000D03*
X155400000Y-73440000D03*
X156800000Y-73440000D03*
X156800000Y-74840000D03*
X155400000Y-74840000D03*
D15*
X165650000Y-67120000D03*
X165650000Y-68390000D03*
X165650000Y-69660000D03*
X165650000Y-70930000D03*
X165650000Y-72200000D03*
X165650000Y-73470000D03*
X165650000Y-74740000D03*
X165650000Y-76010000D03*
X165650000Y-77280000D03*
X165650000Y-78550000D03*
X165650000Y-79820000D03*
X165650000Y-81090000D03*
X165650000Y-82360000D03*
X165650000Y-83630000D03*
D16*
X163885000Y-84880000D03*
X162615000Y-84880000D03*
X161345000Y-84880000D03*
X160075000Y-84880000D03*
X158805000Y-84880000D03*
X157535000Y-84880000D03*
X156265000Y-84880000D03*
X154995000Y-84880000D03*
X153725000Y-84880000D03*
X152455000Y-84880000D03*
X151185000Y-84880000D03*
X149915000Y-84880000D03*
D15*
X148150000Y-83630000D03*
X148150000Y-82360000D03*
X148150000Y-81090000D03*
X148150000Y-79820000D03*
X148150000Y-78550000D03*
X148150000Y-77280000D03*
X148150000Y-76010000D03*
X148150000Y-74740000D03*
X148150000Y-73470000D03*
X148150000Y-72200000D03*
X148150000Y-70930000D03*
X148150000Y-69660000D03*
X148150000Y-68390000D03*
X148150000Y-67120000D03*
D17*
X135000000Y-100325000D03*
X135000000Y-102675000D03*
D18*
X135000000Y-96000000D03*
X135000000Y-98000000D03*
X132500000Y-96000000D03*
X132500000Y-98000000D03*
D17*
X132500000Y-100325000D03*
X132500000Y-102675000D03*
D19*
X130000000Y-102000000D03*
X130000000Y-100000000D03*
X130000000Y-98000000D03*
X130000000Y-96000000D03*
D12*
X142500000Y-85500000D03*
D20*
X125710000Y-85000000D03*
X127290000Y-85000000D03*
D21*
X144500000Y-69310000D03*
X144500000Y-67690000D03*
D17*
X144450000Y-81175000D03*
X144450000Y-78825000D03*
D22*
X140000000Y-69500000D03*
X138000000Y-69500000D03*
D23*
X118790000Y-93000000D03*
X117210000Y-93000000D03*
D20*
X129710000Y-85000000D03*
X131290000Y-85000000D03*
D24*
X126050000Y-79950000D03*
X126050000Y-78050000D03*
X123950000Y-79000000D03*
D25*
X170190000Y-88000000D03*
X171810000Y-88000000D03*
D26*
X126000000Y-67000000D03*
D27*
X126000000Y-69000000D03*
D28*
X117000000Y-61000000D03*
D29*
X116950000Y-89750000D03*
X116950000Y-90250000D03*
X116950000Y-90750000D03*
X116950000Y-91250000D03*
X119050000Y-91250000D03*
X119050000Y-90750000D03*
X119050000Y-90250000D03*
X119050000Y-89750000D03*
D30*
X118000000Y-90500000D03*
D28*
X172000000Y-71000000D03*
D31*
X137000000Y-90000000D03*
X139000000Y-90000000D03*
D32*
X116000000Y-69150000D03*
D33*
X116000000Y-67850000D03*
D34*
X130950000Y-65250000D03*
X130000000Y-65250000D03*
X129050000Y-65250000D03*
X129050000Y-67750000D03*
X130000000Y-67750000D03*
X130950000Y-67750000D03*
D13*
X174500000Y-78000000D03*
X174500000Y-84500000D03*
X170000000Y-78000000D03*
X170000000Y-84500000D03*
D35*
X122500000Y-104000000D03*
X124500000Y-104000000D03*
X119000000Y-87500000D03*
X121000000Y-87500000D03*
D36*
X142000000Y-69290000D03*
X142000000Y-67710000D03*
D37*
X135000000Y-92062500D03*
X133100000Y-92062500D03*
X134050000Y-93937500D03*
D38*
X129310000Y-92500000D03*
X127690000Y-92500000D03*
D39*
X118550000Y-73450000D03*
X116550000Y-73450000D03*
D40*
X144450000Y-71190000D03*
X144450000Y-72810000D03*
D12*
X126500000Y-108000000D03*
D28*
X117000000Y-106000000D03*
D11*
X162500000Y-91500000D03*
D10*
X162500000Y-94040000D03*
X162500000Y-96580000D03*
D41*
X126500000Y-95200000D03*
X126500000Y-96800000D03*
D42*
X122000000Y-101300000D03*
X122000000Y-99700000D03*
D43*
X122500000Y-66950000D03*
X122500000Y-70050000D03*
D12*
X120500000Y-85000000D03*
D35*
X120500000Y-76000000D03*
X122500000Y-76000000D03*
D44*
X124100000Y-99000000D03*
X124100000Y-99500000D03*
X124100000Y-100000000D03*
X124100000Y-100500000D03*
X124100000Y-101000000D03*
X126900000Y-101000000D03*
X126900000Y-100500000D03*
X126900000Y-100000000D03*
X126900000Y-99500000D03*
X126900000Y-99000000D03*
D45*
X125500000Y-100000000D03*
D46*
X125250000Y-101450000D03*
X125750000Y-101450000D03*
X125250000Y-98550000D03*
X125750000Y-98550000D03*
D12*
X122000000Y-73500000D03*
D47*
X119000000Y-100600000D03*
X119000000Y-98400000D03*
D48*
X131150000Y-87400000D03*
X130500000Y-87400000D03*
X129850000Y-87400000D03*
X129850000Y-89600000D03*
X130500000Y-89600000D03*
X131150000Y-89600000D03*
D37*
X138950000Y-92062500D03*
X137050000Y-92062500D03*
X138000000Y-93937500D03*
D31*
X133000000Y-90000000D03*
X135000000Y-90000000D03*
D49*
X130000000Y-80500000D03*
X130000000Y-82500000D03*
D24*
X119550000Y-79950000D03*
X119550000Y-78050000D03*
X117450000Y-79000000D03*
D25*
X126690000Y-104000000D03*
X128310000Y-104000000D03*
D47*
X121500000Y-89900000D03*
X121500000Y-92100000D03*
D12*
X129000000Y-78000000D03*
D48*
X127650000Y-87400000D03*
X127000000Y-87400000D03*
X126350000Y-87400000D03*
X126350000Y-89600000D03*
X127000000Y-89600000D03*
X127650000Y-89600000D03*
D18*
X144450000Y-77000000D03*
X144450000Y-75000000D03*
D12*
X138000000Y-85500000D03*
D49*
X122000000Y-78500000D03*
X122000000Y-80500000D03*
D26*
X119000000Y-69000000D03*
D27*
X119000000Y-67000000D03*
D39*
X127000000Y-82500000D03*
X125000000Y-82500000D03*
D41*
X124500000Y-95200000D03*
X124500000Y-96800000D03*
D35*
X116500000Y-76000000D03*
X118500000Y-76000000D03*
D41*
X115500000Y-90700000D03*
X115500000Y-92300000D03*
D12*
X169000000Y-75000000D03*
X116000000Y-65500000D03*
D50*
X122200000Y-58000000D03*
D51*
X122300000Y-60450000D03*
D52*
X124300000Y-58000000D03*
X126700000Y-58000000D03*
D51*
X128700000Y-60450000D03*
D50*
X128800000Y-58000000D03*
D53*
X124200000Y-60675000D03*
X124850000Y-60675000D03*
X125500000Y-60675000D03*
X126150000Y-60675000D03*
X126800000Y-60675000D03*
D28*
X172000000Y-106000000D03*
D11*
X145000000Y-99000000D03*
D10*
X145000000Y-96460000D03*
X145000000Y-93920000D03*
X145000000Y-91380000D03*
D11*
X149500000Y-99000000D03*
D10*
X149500000Y-96460000D03*
X149500000Y-93920000D03*
X149500000Y-91380000D03*
M02*
