G04 #@! TF.GenerationSoftware,KiCad,Pcbnew,9.0.2*
G04 #@! TF.CreationDate,2025-08-31T04:01:00-05:00*
G04 #@! TF.ProjectId,Dancebot_PCB,44616e63-6562-46f7-945f-5043422e6b69,rev?*
G04 #@! TF.SameCoordinates,Original*
G04 #@! TF.FileFunction,Soldermask,Bot*
G04 #@! TF.FilePolarity,Negative*
%FSLAX46Y46*%
G04 Gerber Fmt 4.6, Leading zero omitted, Abs format (unit mm)*
G04 Created by KiCad (PCBNEW 9.0.2) date 2025-08-31 04:01:00*
%MOMM*%
%LPD*%
G01*
G04 APERTURE LIST*
%ADD10C,1.700000*%
%ADD11R,1.700000X1.700000*%
%ADD12C,2.000000*%
%ADD13R,1.350000X1.350000*%
%ADD14C,1.350000*%
%ADD15C,5.700000*%
%ADD16O,0.900000X1.600000*%
G04 APERTURE END LIST*
D10*
X158000000Y-96580000D03*
X158000000Y-94040000D03*
D11*
X158000000Y-91500000D03*
D10*
X153500000Y-96580000D03*
X153500000Y-94040000D03*
D11*
X153500000Y-91500000D03*
D10*
X167000000Y-96580000D03*
X167000000Y-94040000D03*
D11*
X167000000Y-91500000D03*
D10*
X171500000Y-96580000D03*
X171500000Y-94040000D03*
D11*
X171500000Y-91500000D03*
D12*
X136000000Y-78500000D03*
X136000000Y-72000000D03*
X140500000Y-78500000D03*
X140500000Y-72000000D03*
D13*
X126000000Y-67000000D03*
D14*
X126000000Y-69000000D03*
D15*
X117000000Y-61000000D03*
X172000000Y-71000000D03*
D12*
X174500000Y-78000000D03*
X174500000Y-84500000D03*
X170000000Y-78000000D03*
X170000000Y-84500000D03*
D15*
X117000000Y-106000000D03*
D11*
X162500000Y-91500000D03*
D10*
X162500000Y-94040000D03*
X162500000Y-96580000D03*
D13*
X119000000Y-69000000D03*
D14*
X119000000Y-67000000D03*
D16*
X122200000Y-58000000D03*
X128800000Y-58000000D03*
D15*
X172000000Y-106000000D03*
D11*
X145000000Y-99000000D03*
D10*
X145000000Y-96460000D03*
X145000000Y-93920000D03*
X145000000Y-91380000D03*
D11*
X149500000Y-99000000D03*
D10*
X149500000Y-96460000D03*
X149500000Y-93920000D03*
X149500000Y-91380000D03*
M02*
